<svg width="72px"  height="72px"  viewBox="0 0 24 24" fill="currentColor" xmlns="http://www.w3.org/2000/svg">
<path fill-rule="evenodd" clip-rule="evenodd" d="M5.5625 10.3463C5.5625 6.81555 8.44853 3.92969 11.9801 3.92969C15.5107 3.92969 18.3967 6.81564 18.3967 10.3463V17.2846C18.3967 18.1253 17.7161 18.8071 16.8751 18.8071H7.08504C6.24528 18.8071 5.5625 18.1265 5.5625 17.2846V10.3463ZM11.9801 5.42969C9.27679 5.42969 7.0625 7.64415 7.0625 10.3463V17.2846C7.0625 17.2891 7.06328 17.2915 7.06395 17.2931C7.06485 17.2952 7.06647 17.2979 7.06906 17.3004C7.07165 17.303 7.07434 17.3047 7.07654 17.3056C7.07824 17.3063 7.08064 17.3071 7.08504 17.3071H16.8751C16.8864 17.3071 16.8967 17.2981 16.8967 17.2846V10.3463C16.8967 7.64406 14.6823 5.42969 11.9801 5.42969Z" fill="currentColor" />
<path fill-rule="evenodd" clip-rule="evenodd" d="M5.5625 11.3047C5.5625 10.8905 5.89829 10.5547 6.3125 10.5547H17.6467C18.0609 10.5547 18.3967 10.8905 18.3967 11.3047C18.3967 11.7189 18.0609 12.0547 17.6467 12.0547H6.3125C5.89829 12.0547 5.5625 11.7189 5.5625 11.3047Z" fill="currentColor" />
<path fill-rule="evenodd" clip-rule="evenodd" d="M9.70312 17.3047C10.1173 17.3047 10.4531 17.6405 10.4531 18.0547V20.6175C10.4531 21.0317 10.1173 21.3675 9.70312 21.3675C9.28891 21.3675 8.95312 21.0317 8.95312 20.6175V18.0547C8.95312 17.6405 9.28891 17.3047 9.70312 17.3047ZM14.0482 17.3047C14.4625 17.3047 14.7982 17.6405 14.7982 18.0547V20.6175C14.7982 21.0317 14.4625 21.3675 14.0482 21.3675C13.634 21.3675 13.2982 21.0317 13.2982 20.6175V18.0547C13.2982 17.6405 13.634 17.3047 14.0482 17.3047Z" fill="currentColor" />
<path fill-rule="evenodd" clip-rule="evenodd" d="M9.91602 7.82031C10.3302 7.82031 10.666 8.1561 10.666 8.57031V8.58031C10.666 8.99453 10.3302 9.33031 9.91602 9.33031C9.5018 9.33031 9.16602 8.99453 9.16602 8.58031V8.57031C9.16602 8.1561 9.5018 7.82031 9.91602 7.82031ZM13.8079 7.82031C14.2221 7.82031 14.5579 8.1561 14.5579 8.57031V8.58031C14.5579 8.99453 14.2221 9.33031 13.8079 9.33031C13.3937 9.33031 13.0579 8.99453 13.0579 8.58031V8.57031C13.0579 8.1561 13.3937 7.82031 13.8079 7.82031Z" fill="currentColor" />
<path fill-rule="evenodd" clip-rule="evenodd" d="M7.0439 2.75692C7.38958 2.5287 7.85481 2.62393 8.08302 2.96961L9.40432 4.97101C9.63253 5.31669 9.5373 5.78192 9.19162 6.01013C8.84595 6.23834 8.38072 6.14311 8.15251 5.79744L6.83121 3.79603C6.603 3.45035 6.69822 2.98513 7.0439 2.75692ZM16.9294 2.76476C17.2708 2.9994 17.3573 3.46633 17.1226 3.80768L15.7468 5.80908C15.5122 6.15043 15.0453 6.23692 14.7039 6.00228C14.3626 5.76764 14.2761 5.30071 14.5107 4.95937L15.8865 2.95796C16.1211 2.61662 16.5881 2.53012 16.9294 2.76476Z" fill="currentColor" />
<path fill-rule="evenodd" clip-rule="evenodd" d="M3 10.2461C3.41421 10.2461 3.75 10.5819 3.75 10.9961V15.679C3.75 16.0932 3.41421 16.429 3 16.429C2.58579 16.429 2.25 16.0932 2.25 15.679V10.9961C2.25 10.5819 2.58579 10.2461 3 10.2461ZM21 10.2461C21.4142 10.2461 21.75 10.5819 21.75 10.9961V15.679C21.75 16.0932 21.4142 16.429 21 16.429C20.5858 16.429 20.25 16.0932 20.25 15.679V10.9961C20.25 10.5819 20.5858 10.2461 21 10.2461Z" fill="currentColor" />
</svg>