<svg width="72px"  height="72px"  viewBox="0 0 24 24" fill="currentColor" xmlns="http://www.w3.org/2000/svg">
<path fill-rule="evenodd" clip-rule="evenodd" d="M3.7402 3.89737C4.72468 2.84117 6.12669 2.25 7.78216 2.25H16.2169C17.8762 2.25 19.2788 2.84084 20.2629 3.89765C21.2413 4.94841 21.75 6.39889 21.75 8.02638V15.9736C21.75 17.6011 21.2413 19.0516 20.2627 20.1024C19.2785 21.1592 17.8756 21.75 16.2159 21.75H7.78216C6.1228 21.75 4.72038 21.1591 3.73657 20.1023C2.75842 19.0515 2.25 17.601 2.25 15.9736V8.02638C2.25 6.39806 2.76117 4.94771 3.7402 3.89737ZM4.83745 4.92012C4.16024 5.64666 3.75 6.70951 3.75 8.02638V15.9736C3.75 17.2914 4.15861 18.3541 4.83451 19.0802C5.50475 19.8003 6.49341 20.25 7.78216 20.25H16.2159C17.5052 20.25 18.4944 19.8002 19.165 19.0801C19.8412 18.354 20.25 17.2913 20.25 15.9736V8.02638C20.25 6.70868 19.8412 5.64597 19.1651 4.91984C18.4946 4.19975 17.5056 3.75 16.2169 3.75H7.78216C6.49828 3.75 5.50921 4.19943 4.83745 4.92012Z" fill="currentColor" />
<path fill-rule="evenodd" clip-rule="evenodd" d="M6.5957 14.0922C6.5957 11.118 9.0264 8.6875 12.0014 8.6875C14.9755 8.6875 17.4061 11.1181 17.4061 14.0922V14.9961C17.4061 15.7606 16.7862 16.3805 16.0217 16.3805H7.98008C7.2156 16.3805 6.5957 15.7606 6.5957 14.9961V14.0922ZM12.0014 10.1875C9.85463 10.1875 8.0957 11.9466 8.0957 14.0922V14.8805H15.9061V14.0922C15.9061 11.9465 14.1471 10.1875 12.0014 10.1875Z" fill="currentColor" />
<path fill-rule="evenodd" clip-rule="evenodd" d="M7.87212 7.74513C8.21783 7.51698 8.68305 7.61227 8.91121 7.95798L10.0934 9.74923C10.3215 10.0949 10.2262 10.5602 9.88052 10.7883C9.53481 11.0165 9.06959 10.9212 8.84144 10.5755L7.65927 8.78422C7.43111 8.43851 7.52641 7.97329 7.87212 7.74513Z" fill="currentColor" />
<path fill-rule="evenodd" clip-rule="evenodd" d="M16.1419 7.75295C16.4833 7.98753 16.5699 8.45444 16.3353 8.79583L15.1045 10.5871C14.87 10.9285 14.403 11.015 14.0617 10.7805C13.7203 10.5459 13.6337 10.079 13.8683 9.73759L15.0991 7.94635C15.3336 7.60496 15.8006 7.51837 16.1419 7.75295Z" fill="currentColor" />
<path fill-rule="evenodd" clip-rule="evenodd" d="M10.2891 12.3906C10.7033 12.3906 11.0391 12.7264 11.0391 13.1406V13.1506C11.0391 13.5648 10.7033 13.9006 10.2891 13.9006C9.87485 13.9006 9.53906 13.5648 9.53906 13.1506V13.1406C9.53906 12.7264 9.87485 12.3906 10.2891 12.3906ZM13.6945 12.3906C14.1087 12.3906 14.4445 12.7264 14.4445 13.1406V13.1506C14.4445 13.5648 14.1087 13.9006 13.6945 13.9006C13.2803 13.9006 12.9445 13.5648 12.9445 13.1506V13.1406C12.9445 12.7264 13.2803 12.3906 13.6945 12.3906Z" fill="currentColor" />
</svg>