<svg width="24px"  height="24px"  viewBox="0 0 24 24" fill="none" xmlns="http://www.w3.org/2000/svg">
<path d="M6.08003 10.1875C5.46513 11.1449 5.17422 12.2745 5.25011 13.4099C5.25497 14.5376 5.46902 15.6545 5.88155 16.7033C6.35148 18.0051 7.08508 19.196 8.03564 20.202C8.66514 21.0242 9.81224 21.2431 10.6996 20.7089C11.6754 20.205 12.8303 20.1836 13.8247 20.6515C14.8355 21.2801 16.1626 21.0057 16.8398 20.0269C17.6376 19.125 18.2593 18.083 18.6748 16.9534C18.8129 16.5564 18.8149 16.5623 18.4539 16.3472C17.5218 15.8403 16.8651 14.9433 16.6637 13.9013C16.3387 12.471 16.9069 10.9853 18.1046 10.1389C18.3216 9.97154 18.3673 9.85576 18.1796 9.64657C17.3 8.59287 15.9243 8.09181 14.5729 8.3331C14.0562 8.42358 13.5532 8.57925 13.0765 8.79817C12.4625 9.09491 11.7445 9.08421 11.1393 8.768C9.34328 7.82717 7.12497 8.44985 6.08003 10.1875Z" stroke="currentColor"  stroke-width="1.5"  stroke-linecap="round" stroke-linejoin="round"/>
<path fill-rule="evenodd" clip-rule="evenodd" d="M12.0223 6.98031C11.7722 4.88167 13.2161 3.12843 15.3001 3C15.7126 5.17161 14.2406 6.94626 12.032 6.97934C12.0291 6.97934 12.0252 6.98031 12.0223 6.98031Z" stroke="currentColor"  stroke-width="1.5"  stroke-linecap="round" stroke-linejoin="round"/>
</svg>