<svg width="72px"  height="72px"  viewBox="0 0 24 24" fill="currentColor" xmlns="http://www.w3.org/2000/svg">
<path fill-rule="evenodd" clip-rule="evenodd" d="M3.7402 3.89737C4.72468 2.84117 6.12669 2.25 7.78216 2.25H16.2169C17.8762 2.25 19.2788 2.84084 20.2629 3.89765C21.2413 4.94841 21.75 6.39889 21.75 8.02638V15.9736C21.75 17.6011 21.2413 19.0516 20.2627 20.1024C19.2785 21.1592 17.8756 21.75 16.2159 21.75H7.78216C6.1228 21.75 4.72038 21.1591 3.73657 20.1023C2.75842 19.0515 2.25 17.601 2.25 15.9736V8.02638C2.25 6.39806 2.76117 4.94771 3.7402 3.89737ZM4.83745 4.92012C4.16024 5.64666 3.75 6.70951 3.75 8.02638V15.9736C3.75 17.2914 4.15861 18.3541 4.83451 19.0802C5.50475 19.8003 6.49341 20.25 7.78216 20.25H16.2159C17.5052 20.25 18.4944 19.8002 19.165 19.0801C19.8412 18.354 20.25 17.2913 20.25 15.9736V8.02638C20.25 6.70868 19.8412 5.64597 19.1651 4.91984C18.4946 4.19975 17.5056 3.75 16.2169 3.75H7.78216C6.49828 3.75 5.50921 4.19943 4.83745 4.92012Z"  />
<path fill-rule="evenodd" clip-rule="evenodd" d="M10.6504 10.9375C11.0646 10.9375 11.4004 11.2733 11.4004 11.6875V13.3786C11.4004 13.7928 11.0646 14.1286 10.6504 14.1286C10.2362 14.1286 9.90039 13.7928 9.90039 13.3786V11.6875C9.90039 11.2733 10.2362 10.9375 10.6504 10.9375Z"  />
<path fill-rule="evenodd" clip-rule="evenodd" d="M13.3506 10.9375C13.7648 10.9375 14.1006 11.2733 14.1006 11.6875V13.3786C14.1006 13.7928 13.7648 14.1286 13.3506 14.1286C12.9364 14.1286 12.6006 13.7928 12.6006 13.3786V11.6875C12.6006 11.2733 12.9364 10.9375 13.3506 10.9375Z"  />
<path fill-rule="evenodd" clip-rule="evenodd" d="M6.2998 12.1375C6.2998 8.98948 8.85178 6.4375 11.9998 6.4375C15.1478 6.4375 17.6998 8.98948 17.6998 12.1375V15.2875C17.6998 15.7017 17.364 16.0375 16.9498 16.0375C16.5356 16.0375 16.1998 15.7017 16.1998 15.2875V12.1375C16.1998 9.8179 14.3194 7.9375 11.9998 7.9375C9.68021 7.9375 7.7998 9.8179 7.7998 12.1375V15.2875C7.7998 15.7017 7.46402 16.0375 7.0498 16.0375C6.63559 16.0375 6.2998 15.7017 6.2998 15.2875V12.1375Z"  />
<path fill-rule="evenodd" clip-rule="evenodd" d="M11.3124 12.4472C11.7418 12.2312 12.2598 12.2311 12.6893 12.4472L14.307 13.2609C14.7292 13.4732 15.0151 13.8667 15.0637 14.3248C15.1127 14.7864 14.9115 15.2367 14.5236 15.5258L12.9059 16.7317C12.377 17.1259 11.6246 17.1259 11.0957 16.7317L9.47803 15.5258C9.09012 15.2367 8.88894 14.7864 8.93792 14.3248C8.98652 13.8667 9.27248 13.4732 9.69466 13.2609L11.3124 12.4472ZM11.9862 13.7873L10.5946 14.4873L11.9879 15.5258C11.9905 15.5265 11.995 15.5273 12.0008 15.5273C12.0066 15.5273 12.0111 15.5265 12.0138 15.5258L13.407 14.4873L12.0155 13.7873L12.0153 13.7872C12.0155 13.7873 12.0156 13.7874 12.0155 13.7873C12.0152 13.7872 12.0142 13.7868 12.0122 13.7864C12.0093 13.7857 12.0054 13.7852 12.0008 13.7852C11.9963 13.7852 11.9923 13.7857 11.9894 13.7864C11.9875 13.7868 11.9864 13.7872 11.9862 13.7873ZM12.0152 13.7872L12.0153 13.7872L12.0152 13.7872Z"  />
</svg>