<svg width="72px"  height="72px"  viewBox="0 0 24 24" fill="currentColor" xmlns="http://www.w3.org/2000/svg">
<path fill-rule="evenodd" clip-rule="evenodd" d="M10.605 7.0625C11.0192 7.0625 11.355 7.39829 11.355 7.8125V9.59817C11.355 10.0124 11.0192 10.3482 10.605 10.3482C10.1908 10.3482 9.85498 10.0124 9.85498 9.59817V7.8125C9.85498 7.39829 10.1908 7.0625 10.605 7.0625Z"  />
<path fill-rule="evenodd" clip-rule="evenodd" d="M13.396 7.0625C13.8102 7.0625 14.146 7.39829 14.146 7.8125V9.59817C14.146 10.0124 13.8102 10.3482 13.396 10.3482C12.9818 10.3482 12.646 10.0124 12.646 9.59817V7.8125C12.646 7.39829 12.9818 7.0625 13.396 7.0625Z"  />
<path fill-rule="evenodd" clip-rule="evenodd" d="M13.6463 10.6791C14.0112 10.4831 14.4659 10.6201 14.6619 10.985C15.832 13.1637 16.1609 15.6964 15.5862 18.1017C15.49 18.5046 15.0853 18.7531 14.6824 18.6569C14.2796 18.5606 14.031 18.156 14.1273 17.7531C14.6165 15.7055 14.3365 13.5494 13.3404 11.6947C13.1444 11.3298 13.2813 10.8751 13.6463 10.6791Z"  />
<path fill-rule="evenodd" clip-rule="evenodd" d="M10.3546 10.6791C10.7195 10.8751 10.8565 11.3298 10.6605 11.6947C9.66453 13.5493 9.38455 15.7052 9.87379 17.7527C9.97005 18.1555 9.7215 18.5602 9.31862 18.6564C8.91575 18.7527 8.51112 18.5041 8.41486 18.1013C7.84016 15.6961 8.16904 13.1636 9.33902 10.985C9.53499 10.6201 9.98969 10.4831 10.3546 10.6791Z"  />
<path fill-rule="evenodd" clip-rule="evenodd" d="M12.0005 4.37891C10.1027 4.37891 8.56418 5.91738 8.56418 7.81518V8.08995C8.56416 10.1852 7.90951 12.228 6.69172 13.933C6.6917 13.933 6.69173 13.9329 6.69172 13.933L6.55849 14.1195C6.55814 14.12 6.55779 14.1205 6.55744 14.121C6.41702 14.3206 6.34671 14.5611 6.35753 14.805C6.3759 15.2188 6.05534 15.5691 5.64153 15.5875C5.22773 15.6059 4.87738 15.2853 4.85901 14.8715C4.83341 14.2948 5.00017 13.726 5.33307 13.2544L5.33542 13.2511L5.47102 13.0612C6.50713 11.6107 7.06417 9.87255 7.06418 8.08994V7.81518C7.06418 5.08895 9.27423 2.87891 12.0005 2.87891C14.7267 2.87891 16.9367 5.08895 16.9367 7.81518V8.08994C16.9367 9.87255 17.4937 11.6106 18.5298 13.0612L18.6679 13.2544C19.0008 13.726 19.1675 14.2948 19.1419 14.8715C19.1235 15.2853 18.7732 15.6059 18.3594 15.5875C17.9456 15.5691 17.625 15.2188 17.6434 14.805C17.6542 14.5611 17.5839 14.3206 17.4434 14.121C17.4431 14.1205 17.4428 14.12 17.4424 14.1195L17.3092 13.933C17.3092 13.933 17.3093 13.9331 17.3092 13.933C16.0914 12.2281 15.4367 10.1852 15.4367 8.08994V7.81518C15.4367 5.91738 13.8983 4.37891 12.0005 4.37891Z"  />
<path fill-rule="evenodd" clip-rule="evenodd" d="M13.9614 18.3269C13.9614 18.3268 13.9615 18.3269 13.9614 18.3269L14.0071 18.3556C14.0069 18.3554 14.0074 18.3558 14.0071 18.3556C14.3359 18.5607 14.7143 18.675 15.1016 18.6858C15.5157 18.6973 15.842 19.0424 15.8305 19.4564C15.8189 19.8705 15.4739 20.1968 15.0599 20.1852C14.4055 20.167 13.7679 19.9746 13.2127 19.6279L13.211 19.6269L13.1634 19.597C12.4525 19.1501 11.5484 19.15 10.8375 19.5968L10.788 19.6279C10.2328 19.9746 9.59514 20.167 8.94082 20.1852C8.52677 20.1968 8.18176 19.8705 8.17022 19.4564C8.15868 19.0424 8.48498 18.6973 8.89903 18.6858C9.28642 18.675 9.66394 18.5612 9.99274 18.3561L10.0393 18.3269C10.0392 18.3269 10.0393 18.3268 10.0393 18.3269C11.238 17.5735 12.7627 17.5735 13.9614 18.3269Z"  />
<path fill-rule="evenodd" clip-rule="evenodd" d="M11.2731 8.53083C11.7228 8.27097 12.2769 8.27097 12.7266 8.53083L14.3443 9.46572C15.2115 9.9669 15.323 11.1748 14.5623 11.8263L12.9446 13.2117C12.4008 13.6774 11.5989 13.6774 11.0551 13.2117L9.43742 11.8263C8.67665 11.1748 8.7882 9.9669 9.65542 9.46572L11.2731 8.53083ZM11.9998 9.84332L10.4642 10.7308L11.9998 12.0459L13.5355 10.7308L11.9998 9.84332Z"  />
<path fill-rule="evenodd" clip-rule="evenodd" d="M18.0415 13.6116C18.271 13.6506 18.4685 13.7559 18.6226 13.9064C18.7253 14.0069 18.7976 14.1163 18.8491 14.2155C18.9948 14.1303 19.1646 14.0554 19.3465 14.0086C19.6941 13.9191 20.2269 13.9055 20.6609 14.3185L20.6632 14.3206L20.6632 14.3206C21.3018 14.9334 21.1489 15.7469 21.0051 16.1782C20.9989 16.1968 20.9934 16.2139 20.9887 16.2297C20.9994 16.2351 21.0105 16.2408 21.0216 16.2467C21.1026 16.2895 21.2191 16.3566 21.3333 16.4588C21.6031 16.7 21.7501 17.0354 21.7501 17.4436C21.7501 17.892 21.5391 18.3146 21.1793 18.5837L21.1633 18.5953L18.3448 20.5893C17.2723 21.3873 15.7763 21.278 14.8305 20.3322L14.8304 20.3321C13.8822 19.3836 13.7751 17.8825 14.5801 16.8092L14.5836 16.8046L14.5836 16.8046L16.5876 14.1751C16.8238 13.8616 17.347 13.4677 18.0415 13.6116ZM19.0611 14.8941C19.0611 14.8942 19.0605 14.8926 19.0593 14.889C19.0606 14.8923 19.0612 14.8941 19.0611 14.8941ZM17.6164 15.2997L15.7786 17.7112C15.4233 18.187 15.4711 18.8513 15.8913 19.2717C16.3122 19.6925 16.978 19.7397 17.4536 19.3828L17.4706 19.3703L20.1398 17.4819C19.9816 17.398 19.6746 17.2142 19.5305 16.8181C19.3961 16.4488 19.4636 16.0589 19.5821 15.7036C19.611 15.617 19.6251 15.5484 19.6303 15.4972C19.6252 15.4998 19.6201 15.5025 19.615 15.5054C19.5968 15.5156 19.5817 15.5254 19.5706 15.5333C19.563 15.5387 19.5589 15.5421 19.5581 15.5428C19.4099 15.6806 19.2605 15.8024 19.1099 15.892C18.9709 15.9746 18.7441 16.0825 18.4673 16.0624C18.1357 16.0383 17.9095 15.8483 17.7836 15.666C17.6906 15.5314 17.6424 15.3895 17.6164 15.2997Z"  />
<path fill-rule="evenodd" clip-rule="evenodd" d="M5.95846 13.6116C5.72903 13.6506 5.53151 13.7559 5.37742 13.9064C5.27465 14.0069 5.20244 14.1163 5.1509 14.2155C5.00517 14.1303 4.83543 14.0554 4.65351 14.0086C4.30587 13.9191 3.77312 13.9055 3.33907 14.3185L3.33679 14.3206L3.33679 14.3206C2.6982 14.9334 2.85111 15.7469 2.99494 16.1782C3.00115 16.1968 3.00656 16.2139 3.01127 16.2297C3.00055 16.2351 2.98953 16.2408 2.97843 16.2467C2.89743 16.2895 2.78089 16.3566 2.66666 16.4588C2.39687 16.7 2.24991 17.0354 2.24991 17.4436C2.24991 17.892 2.46087 18.3146 2.82074 18.5837L2.83668 18.5953L5.65517 20.5893C6.72774 21.3873 8.22367 21.278 9.16949 20.3322L9.16958 20.3321C10.1178 19.3836 10.2249 17.8825 9.41987 16.8092L9.4164 16.8046L9.41638 16.8046L7.41242 14.1751C7.17619 13.8616 6.65298 13.4677 5.95846 13.6116ZM4.93887 14.8941C4.9389 14.8942 4.93953 14.8926 4.94069 14.889C4.93942 14.8923 4.93885 14.8941 4.93887 14.8941ZM6.38355 15.2997L8.22139 17.7112C8.57667 18.187 8.52891 18.8513 8.10874 19.2717C7.68782 19.6925 7.02198 19.7397 6.54644 19.3828L6.52941 19.3703L3.86017 17.4819C4.01844 17.398 4.32541 17.2142 4.46953 16.8181C4.6039 16.4488 4.5364 16.0589 4.41788 15.7036C4.38902 15.617 4.3749 15.5484 4.36973 15.4972C4.37478 15.4998 4.37986 15.5025 4.38496 15.5054C4.40316 15.5156 4.41829 15.5254 4.42942 15.5333C4.43703 15.5387 4.44108 15.5421 4.44194 15.5428C4.59014 15.6806 4.7395 15.8024 4.89013 15.892C5.02909 15.9746 5.2559 16.0825 5.53272 16.0624C5.8643 16.0383 6.09048 15.8483 6.21643 15.666C6.3094 15.5314 6.35762 15.3895 6.38355 15.2997Z"  />
</svg>