<svg width="72px"  height="72px"  viewBox="0 0 24 24" fill="currentColor" xmlns="http://www.w3.org/2000/svg">
<path d="M12 21.7539C6.62 21.7539 2.25 17.3839 2.25 12.0039C2.25 6.62391 6.62 2.25391 12 2.25391C17.38 2.25391 21.75 6.62391 21.75 12.0039C21.75 17.3839 17.38 21.7539 12 21.7539ZM12 3.75391C7.45 3.75391 3.75 7.45391 3.75 12.0039C3.75 16.5539 7.45 20.2539 12 20.2539C16.55 20.2539 20.25 16.5539 20.25 12.0039C20.25 7.45391 16.55 3.75391 12 3.75391Z"  />
<path d="M13.7205 21.574C13.3705 21.574 13.0605 21.3239 12.9905 20.9739C12.7205 19.6039 12.5205 18.2338 12.4205 16.8938C12.2905 15.3338 12.3005 14.274 12.3205 13.824C11.9205 13.804 11.5005 13.7739 11.0105 13.7039C9.80048 13.5539 9.59048 12.824 9.54048 12.064C9.47048 10.634 10.5105 4.81374 10.9205 2.84374C11.0005 2.43374 11.4005 2.17391 11.8105 2.26391C12.2205 2.34391 12.4805 2.7438 12.3905 3.1538C11.8905 5.6038 10.9905 10.8939 11.0405 11.9839C11.0405 12.0839 11.0505 12.1438 11.0605 12.1938C11.0905 12.1938 11.1405 12.2139 11.2105 12.2139C11.7805 12.2939 12.2405 12.324 12.6505 12.324C13.0205 12.324 13.3205 12.4338 13.5305 12.6538C13.8605 12.9938 13.8405 13.4239 13.8205 13.7739C13.8105 14.0739 13.7805 15.1339 13.9205 16.7639C14.0205 18.0439 14.2105 19.3538 14.4705 20.6638C14.5505 21.0738 14.2905 21.4639 13.8805 21.5439C13.8305 21.5439 13.7805 21.5539 13.7305 21.5539L13.7205 21.574Z"  />
<path d="M11.8502 17.8542C9.95022 17.8542 8.13021 17.1543 6.72021 15.8943C6.41021 15.6143 6.39022 15.1442 6.66022 14.8342C6.94022 14.5242 7.41021 14.5044 7.72021 14.7744C8.86021 15.7944 10.3202 16.3542 11.8502 16.3542C13.5102 16.3542 15.0802 15.7044 16.2602 14.5144C16.5502 14.2244 17.0302 14.2244 17.3202 14.5144C17.6102 14.8044 17.6102 15.2844 17.3202 15.5744C15.8602 17.0444 13.9102 17.8542 11.8502 17.8542Z"  />
<path d="M16.4303 10.165C16.0203 10.165 15.6803 9.82504 15.6803 9.41504V8.28516C15.6803 7.87516 16.0203 7.53516 16.4303 7.53516C16.8403 7.53516 17.1803 7.87516 17.1803 8.28516V9.41504C17.1803 9.82504 16.8403 10.165 16.4303 10.165ZM7.57031 10.165C7.16031 10.165 6.82031 9.82504 6.82031 9.41504V8.28516C6.82031 7.87516 7.16031 7.53516 7.57031 7.53516C7.98031 7.53516 8.32031 7.87516 8.32031 8.28516V9.41504C8.32031 9.82504 7.98031 10.165 7.57031 10.165Z"  />
</svg>