<svg width="72px"  height="72px"  viewBox="0 0 24 24" fill="currentColor" xmlns="http://www.w3.org/2000/svg">
<path d="M16.46 21.3936H7.53999C4.37999 21.3936 2.25 19.1735 2.25 15.8735V8.12354C2.25 4.87354 4.41999 2.60352 7.53999 2.60352H16.46C19.62 2.60352 21.75 4.82354 21.75 8.12354V15.8735C21.75 19.1735 19.62 21.3936 16.46 21.3936ZM7.53999 4.10352C5.23999 4.10352 3.75 5.68354 3.75 8.12354V15.8735C3.75 18.3135 5.23999 19.8936 7.53999 19.8936H16.46C18.76 19.8936 20.25 18.3135 20.25 15.8735V8.12354C20.25 5.68354 18.76 4.10352 16.46 4.10352H7.53999Z"  />
<path d="M13.6704 21.3952C13.3204 21.3952 13.0104 21.1454 12.9404 20.7954C12.6704 19.4654 12.4904 18.1352 12.3804 16.8352C12.2604 15.3552 12.2604 14.3352 12.2804 13.8752C11.8704 13.8652 11.4604 13.8254 11.0304 13.7654C9.84038 13.6154 9.63038 12.8653 9.59038 12.1553C9.52038 10.7753 10.5304 5.1253 10.9304 3.2053C11.0104 2.7953 11.4104 2.53523 11.8204 2.62523C12.2304 2.70523 12.4904 3.10536 12.4004 3.51536C11.9104 5.89536 11.0404 11.0254 11.0904 12.0754C11.0904 12.1554 11.1004 12.2154 11.1104 12.2554C11.1404 12.2554 11.1804 12.2654 11.2404 12.2754C11.7404 12.3454 12.1904 12.3752 12.6304 12.3752C13.0004 12.3752 13.2904 12.4853 13.5004 12.7053C13.8204 13.0453 13.8004 13.4654 13.7904 13.8054C13.7804 14.1054 13.7504 15.1353 13.8804 16.7053C13.9804 17.9453 14.1604 19.2153 14.4104 20.4853C14.4904 20.8953 14.2304 21.2852 13.8204 21.3652C13.7704 21.3652 13.7204 21.3752 13.6704 21.3752V21.3952Z"  />
<path d="M11.8502 17.8562C9.95022 17.8562 8.13021 17.1562 6.72021 15.8962C6.41021 15.6162 6.39022 15.1462 6.66022 14.8362C6.94022 14.5262 7.41021 14.5063 7.72021 14.7763C8.86021 15.7963 10.3202 16.3562 11.8502 16.3562C13.5102 16.3562 15.0802 15.7063 16.2602 14.5163C16.5502 14.2263 17.0302 14.2263 17.3202 14.5163C17.6102 14.8063 17.6102 15.2864 17.3202 15.5764C15.8602 17.0464 13.9102 17.8562 11.8502 17.8562Z"  />
<path d="M16.4303 10.167C16.0203 10.167 15.6803 9.82699 15.6803 9.41699V8.28711C15.6803 7.87711 16.0203 7.53711 16.4303 7.53711C16.8403 7.53711 17.1803 7.87711 17.1803 8.28711V9.41699C17.1803 9.82699 16.8403 10.167 16.4303 10.167ZM7.57031 10.167C7.16031 10.167 6.82031 9.82699 6.82031 9.41699V8.28711C6.82031 7.87711 7.16031 7.53711 7.57031 7.53711C7.98031 7.53711 8.32031 7.87711 8.32031 8.28711V9.41699C8.32031 9.82699 7.98031 10.167 7.57031 10.167Z"  />
</svg>