<svg width="72px"  height="72px"  viewBox="0 0 24 24" fill="currentColor" xmlns="http://www.w3.org/2000/svg">
<path d="M19.2848 21.9487C19.1348 21.9487 18.9848 21.9287 18.8448 21.8987L4.30476 18.7588C3.32476 18.5388 2.63477 17.6887 2.63477 16.6987V7.69874C2.63477 6.69874 3.31476 5.85892 4.29476 5.63892L18.8348 2.49879C19.4648 2.36879 20.1148 2.51871 20.6048 2.91871C21.1048 3.31871 21.3848 3.91884 21.3848 4.55884V19.8389C21.3848 20.4789 21.1048 21.0788 20.6048 21.4788C20.2248 21.7888 19.7548 21.9487 19.2748 21.9487H19.2848ZM19.1548 3.95875L4.61476 7.09888C4.33476 7.15888 4.13477 7.40874 4.13477 7.69874V16.6987C4.13477 16.9887 4.33476 17.2288 4.62476 17.2988L19.1548 20.4387C19.3348 20.4787 19.5248 20.4389 19.6748 20.3189C19.7548 20.2489 19.8948 20.0989 19.8948 19.8489V4.56885C19.8948 4.31885 19.7548 4.15888 19.6748 4.09888C19.5348 3.97888 19.3448 3.93877 19.1548 3.97877V3.95875Z"  />
<path d="M11.1152 20.2097C10.7052 20.2097 10.3652 19.8697 10.3652 19.4597V4.92969C10.3652 4.51969 10.7052 4.17969 11.1152 4.17969C11.5252 4.17969 11.8652 4.51969 11.8652 4.92969V19.4597C11.8652 19.8697 11.5252 20.2097 11.1152 20.2097Z"  />
<path d="M20.6448 12.9453H3.38477C2.97477 12.9453 2.63477 12.6053 2.63477 12.1953C2.63477 11.7853 2.97477 11.4453 3.38477 11.4453H20.6448C21.0548 11.4453 21.3948 11.7853 21.3948 12.1953C21.3948 12.6053 21.0548 12.9453 20.6448 12.9453Z"  />
</svg>