<svg width="24px"  height="24px"  viewBox="0 0 24 24" fill="currentColor" xmlns="http://www.w3.org/2000/svg">
<path fill-rule="evenodd" clip-rule="evenodd" d="M17.2579 3.92969C16.4534 3.92969 15.8486 4.55148 15.8486 5.26107C15.8486 5.97066 16.4534 6.59245 17.2579 6.59245C18.0623 6.59245 18.6671 5.97066 18.6671 5.26107C18.6671 4.55148 18.0623 3.92969 17.2579 3.92969ZM14.3486 5.26107C14.3486 3.67162 15.6773 2.42969 17.2579 2.42969C18.8384 2.42969 20.1671 3.67162 20.1671 5.26107C20.1671 6.85052 18.8384 8.09245 17.2579 8.09245C15.6773 8.09245 14.3486 6.85052 14.3486 5.26107Z" fill="currentColor" />
<path fill-rule="evenodd" clip-rule="evenodd" d="M5.15922 10.6641C4.35474 10.6641 3.75 11.2859 3.75 11.9954C3.75 12.705 4.35474 13.3268 5.15922 13.3268C5.96371 13.3268 6.56844 12.705 6.56844 11.9954C6.56844 11.2859 5.96371 10.6641 5.15922 10.6641ZM2.25 11.9954C2.25 10.406 3.5787 9.16406 5.15922 9.16406C6.73975 9.16406 8.06844 10.406 8.06844 11.9954C8.06844 13.5849 6.73975 14.8268 5.15922 14.8268C3.5787 14.8268 2.25 13.5849 2.25 11.9954Z" fill="currentColor" />
<path fill-rule="evenodd" clip-rule="evenodd" d="M17.2637 17.3984C16.4592 17.3984 15.8545 18.0202 15.8545 18.7298C15.8545 19.4394 16.4592 20.0612 17.2637 20.0612C18.0682 20.0612 18.6729 19.4394 18.6729 18.7298C18.6729 18.0202 18.0682 17.3984 17.2637 17.3984ZM14.3545 18.7298C14.3545 17.1404 15.6832 15.8984 17.2637 15.8984C18.8442 15.8984 20.1729 17.1404 20.1729 18.7298C20.1729 20.3193 18.8442 21.5612 17.2637 21.5612C15.6832 21.5612 14.3545 20.3193 14.3545 18.7298Z" fill="currentColor" />
<path fill-rule="evenodd" clip-rule="evenodd" d="M11.029 3.74043C12.4816 3.38096 14.0005 3.38503 15.4512 3.75227C15.8527 3.85392 16.0959 4.26184 15.9942 4.66339C15.8926 5.06494 15.4846 5.30805 15.0831 5.2064C13.8714 4.89965 12.6027 4.89625 11.3893 5.19651C10.9872 5.29601 10.5806 5.05072 10.4811 4.64864C10.3816 4.24655 10.6269 3.83994 11.029 3.74043Z" fill="currentColor" />
<path fill-rule="evenodd" clip-rule="evenodd" d="M18.4164 6.00943C18.7046 5.71191 19.1794 5.70435 19.4769 5.99254C20.5319 7.01451 21.3029 8.29345 21.7139 9.70362C21.8298 10.1013 21.6014 10.5176 21.2038 10.6335C20.8061 10.7494 20.3898 10.521 20.2739 10.1234C19.9357 8.96311 19.3013 7.91082 18.4333 7.06996C18.1357 6.78177 18.1282 6.30696 18.4164 6.00943Z" fill="currentColor" />
<path fill-rule="evenodd" clip-rule="evenodd" d="M5.24755 13.3296C5.64587 13.2159 6.0609 13.4467 6.17454 13.845C6.50604 15.0069 7.13425 16.0626 7.99738 16.9081C8.29328 17.198 8.29816 17.6728 8.0083 17.9687C7.71844 18.2646 7.24359 18.2695 6.9477 17.9796C5.89859 16.9519 5.13503 15.6688 4.7321 14.2565C4.61845 13.8582 4.84923 13.4432 5.24755 13.3296Z" fill="currentColor" />
<path fill-rule="evenodd" clip-rule="evenodd" d="M8.0083 6.02594C8.29816 6.32183 8.29328 6.79668 7.99738 7.08654C7.13424 7.9321 6.50603 8.98776 6.17454 10.1497C6.06091 10.548 5.64588 10.7788 5.24756 10.6652C4.84924 10.5515 4.61846 10.1365 4.73209 9.73819C5.13501 8.32589 5.89857 7.04277 6.9477 6.01502C7.24359 5.72516 7.71844 5.73005 8.0083 6.02594Z" fill="currentColor" />
<path fill-rule="evenodd" clip-rule="evenodd" d="M21.2095 13.3542C21.6072 13.4701 21.8356 13.8864 21.7197 14.2841C21.3086 15.6942 20.5377 16.9731 19.4828 17.9951C19.1853 18.2833 18.7105 18.2758 18.4223 17.9783C18.1341 17.6807 18.1416 17.2059 18.4391 16.9177C19.3071 16.0768 19.9414 15.0246 20.2796 13.8643C20.3955 13.4667 20.8119 13.2383 21.2095 13.3542Z" fill="currentColor" />
<path fill-rule="evenodd" clip-rule="evenodd" d="M16.0002 19.3249C16.1018 19.7265 15.8587 20.1344 15.4572 20.236C14.0064 20.6033 12.4875 20.6073 11.0349 20.2479C10.6328 20.1484 10.3875 19.7417 10.487 19.3397C10.5865 18.9376 10.9931 18.6923 11.3952 18.7918C12.6086 19.092 13.8773 19.0886 15.0891 18.7819C15.4906 18.6802 15.8985 18.9234 16.0002 19.3249Z" fill="currentColor" />
</svg>